<svg xmlns="http://www.w3.org/2000/svg" viewBox="0 0 400 560" fill="none">
  <defs>
    <linearGradient id="bg2" x1="0" y1="0" x2="400" y2="560">
      <stop offset="0%" stop-color="#0f0f18"/>
      <stop offset="100%" stop-color="#1a1a24"/>
    </linearGradient>
    <linearGradient id="accent2" x1="0%" y1="0%" x2="100%" y2="100%">
      <stop offset="0%" stop-color="#8b5cf6"/>
      <stop offset="100%" stop-color="#a855f7"/>
    </linearGradient>
  </defs>
  
  <rect width="400" height="560" fill="url(#bg2)"/>
  <rect x="0" y="0" width="400" height="4" fill="url(#accent2)"/>
  
  <!-- Heart glow -->
  <circle cx="200" cy="185" r="60" fill="#8b5cf6" opacity="0.06"/>
  <circle cx="200" cy="185" r="40" fill="#8b5cf6" opacity="0.08"/>
  
  <!-- Heart -->
  <path d="M200 165 C200 145, 170 130, 170 155 C170 180, 200 200, 200 200 C200 200, 230 180, 230 155 C230 130, 200 145, 200 165Z" fill="url(#accent2)" opacity="0.3"/>
  <path d="M200 170 C200 155, 178 142, 178 162 C178 182, 200 198, 200 198 C200 198, 222 182, 222 162 C222 142, 200 155, 200 170Z" fill="url(#accent2)" opacity="0.5"/>
  
  <line x1="140" y1="250" x2="260" y2="250" stroke="url(#accent2)" stroke-width="1" opacity="0.4"/>
  
  <text x="200" y="300" text-anchor="middle" font-family="Georgia, serif" font-size="28" fill="#f8fafc" font-weight="bold" letter-spacing="1">The Anxious</text>
  <text x="200" y="335" text-anchor="middle" font-family="Georgia, serif" font-size="28" fill="#f8fafc" font-weight="bold" letter-spacing="1">Heart</text>
  
  <text x="200" y="370" text-anchor="middle" font-family="Arial, sans-serif" font-size="11" fill="#64748b" letter-spacing="1">YOUR COMPLETE GUIDE TO</text>
  <text x="200" y="388" text-anchor="middle" font-family="Arial, sans-serif" font-size="11" fill="#64748b" letter-spacing="1">OVERCOMING RELATIONSHIP ANXIETY</text>
  
  <rect x="150" y="420" width="100" height="2" rx="1" fill="url(#accent2)" opacity="0.3"/>
  <text x="200" y="460" text-anchor="middle" font-family="Georgia, serif" font-size="13" fill="#8b5cf6" opacity="0.7">by Sophie</text>
  
  <rect x="0" y="540" width="400" height="20" fill="url(#accent2)" opacity="0.15"/>
  <rect x="16" y="16" width="368" height="528" rx="12" fill="none" stroke="#8b5cf6" stroke-width="1" opacity="0.2"/>
</svg>
